<svg width="512" height="512" viewBox="0 0 512 512" fill="none" xmlns="http://www.w3.org/2000/svg">
<path d="M439.5 270.709C433.987 270.706 428.527 271.781 423.428 273.875C420.665 269.991 417.762 266.107 414.718 262.224C421.555 253.544 427.885 244.475 433.676 235.064C459.824 192.291 464.76 154.928 447.576 129.858C430.392 104.788 393.763 95.916 344.438 104.879C341.838 105.352 339.214 105.879 336.574 106.444C335.548 103.947 334.496 101.49 333.418 99.073C312.922 53.322 284.9 28.125 254.5 28.125C251.4 28.1291 248.307 28.3967 245.253 28.925C237.636 20.9029 227.189 16.1698 216.135 15.7329C205.081 15.296 194.293 19.1897 186.067 26.5856C177.84 33.9814 172.824 44.2955 172.086 55.3333C171.349 66.371 174.947 77.261 182.116 85.686C178.66 92.196 175.427 99.1153 172.416 106.444C169.78 105.88 167.16 105.353 164.563 104.881C115.238 95.92 78.6099 104.791 61.4249 129.86C44.2399 154.929 49.1759 192.293 75.3249 235.066C81.1166 244.479 87.4482 253.549 94.2879 262.231C91.4726 265.816 88.7786 269.403 86.2059 272.992C76.154 269.563 65.1822 270.023 55.4526 274.282C45.723 278.54 37.9415 286.289 33.6414 296C29.3412 305.712 28.8345 316.681 32.221 326.748C35.6074 336.814 42.6415 345.247 51.9369 350.385C49.9779 367.643 53.1489 382.485 61.4259 394.56C74.2419 413.26 97.8689 422.944 129.516 422.943C141.277 422.858 153.006 421.72 164.564 419.543C167.164 419.07 169.788 418.543 172.428 417.978C173.454 420.475 174.506 422.932 175.584 425.349C196.084 471.1 224.106 496.297 254.501 496.297C284.896 496.297 312.923 471.097 333.418 425.349C334.499 422.937 335.551 420.48 336.574 417.978C339.214 418.543 341.838 419.07 344.438 419.543C355.996 421.72 367.725 422.858 379.486 422.943C411.129 422.943 434.761 413.255 447.576 394.56C455.618 382.828 458.846 368.473 457.222 351.822C466.036 347.781 473.203 340.848 477.533 332.172C481.863 323.497 483.095 313.601 481.026 304.129C478.956 294.656 473.709 286.176 466.155 280.097C458.602 274.018 449.196 270.705 439.5 270.709ZM347.3 120.622C389.429 112.966 421.169 119.63 434.381 138.905C447.593 158.18 442.362 190.186 420.028 226.719C415.179 234.606 409.923 242.236 404.282 249.578C390.821 234.123 376.263 219.66 360.721 206.3C357.299 175.643 351.059 146.894 342.295 121.6C343.97 121.25 345.64 120.923 347.3 120.622ZM307.241 339.147C290.344 350.759 272.728 361.289 254.5 370.674C236.272 361.289 218.656 350.759 201.759 339.147C188.29 329.915 175.498 320.194 163.525 310.147C162.004 294.589 161.219 278.541 161.219 262.212C161.219 245.883 162.009 229.852 163.525 214.322C175.546 204.21 188.352 194.462 201.759 185.273C218.656 173.66 236.272 163.129 254.5 153.742C272.728 163.127 290.344 173.657 307.241 185.269C320.658 194.469 333.462 204.211 345.479 214.318C346.997 229.862 347.779 245.894 347.779 262.208C347.779 278.522 346.994 294.585 345.473 310.143C333.5 320.194 320.71 329.915 307.241 339.147ZM342.652 333.018C339.415 355.511 334.055 377.646 326.644 399.128C308.029 394.038 289.867 387.415 272.344 379.328C287.438 371.085 302.103 362.08 316.282 352.348C325.381 346.111 334.171 339.668 342.652 333.018ZM236.652 379.325C219.129 387.412 200.967 394.035 182.352 399.125C174.941 377.643 169.581 355.508 166.344 333.015C174.811 339.648 183.599 346.091 192.709 352.342C206.89 362.075 221.557 371.081 236.652 379.325ZM146.252 294.882C135.184 284.622 124.726 273.722 114.933 262.239C124.733 250.769 135.188 239.874 146.246 229.611C145.566 240.319 145.217 251.205 145.217 262.211C145.218 273.236 145.564 284.127 146.254 294.882H146.252ZM166.342 191.424C169.567 168.921 174.919 146.774 182.326 125.281C200.949 130.373 219.119 136.999 236.649 145.091C221.555 153.334 206.89 162.339 192.711 172.071C183.644 178.29 174.855 184.741 166.344 191.424H166.342ZM272.347 145.091C289.87 137.004 308.032 130.381 326.647 125.291C334.061 146.78 339.422 168.923 342.658 191.423C334.166 184.762 325.377 178.312 316.29 172.074C302.11 162.341 287.444 153.335 272.349 145.091H272.347ZM362.747 229.602C373.808 239.866 384.265 250.762 394.066 262.235C384.271 273.719 373.812 284.62 362.743 294.882C363.425 284.145 363.77 273.253 363.778 262.208C363.78 251.203 363.437 240.333 362.75 229.6L362.747 229.602ZM214.5 31.709C219.741 31.709 224.865 33.2632 229.223 36.1751C233.58 39.0869 236.977 43.2257 238.983 48.0679C240.988 52.9101 241.513 58.2384 240.491 63.3789C239.468 68.5194 236.944 73.2412 233.238 76.9473C229.532 80.6534 224.81 83.1773 219.67 84.1998C214.529 85.2223 209.201 84.6975 204.359 82.6918C199.517 80.6861 195.378 77.2895 192.466 72.9316C189.554 68.5737 188 63.4502 188 58.209C188.008 51.1831 190.802 44.4472 195.77 39.4792C200.738 34.5111 207.474 31.7167 214.5 31.709ZM194.846 95.87C202.402 99.8192 210.972 101.403 219.44 100.416C227.909 99.4284 235.884 95.9154 242.329 90.3338C248.774 84.7522 253.39 77.3603 255.577 69.1196C257.764 60.8788 257.42 52.1708 254.591 44.128C277.928 44.186 301.332 66.588 318.815 105.614C319.504 107.152 320.181 108.71 320.844 110.289C297.98 116.72 275.768 125.279 254.5 135.852C233.224 125.275 211.004 116.714 188.131 110.282C190.255 105.271 192.493 100.467 194.846 95.87ZM88.9749 226.719C66.6409 190.186 61.4099 158.179 74.6219 138.9C87.8339 119.621 119.574 112.962 161.703 120.618C163.357 120.918 165.022 121.245 166.694 121.585C157.979 146.764 151.729 175.535 148.294 206.279C132.749 219.648 118.188 234.118 104.722 249.579C99.0804 242.237 93.8243 234.607 88.9749 226.719ZM72.4999 286.709C77.7411 286.709 82.8647 288.263 87.2226 291.175C91.5805 294.087 94.977 298.226 96.9827 303.068C98.9885 307.91 99.5133 313.238 98.4907 318.379C97.4682 323.519 94.9444 328.241 91.2383 331.947C87.5322 335.653 82.8103 338.177 77.6698 339.2C72.5293 340.222 67.2011 339.698 62.3588 337.692C57.5166 335.686 53.3779 332.29 50.466 327.932C47.5541 323.574 45.9999 318.45 45.9999 313.209C46.0076 306.183 48.802 299.447 53.7701 294.479C58.7381 289.511 65.4741 286.717 72.4999 286.709ZM161.7 403.794C119.57 411.449 87.8309 404.785 74.6189 385.512C69.0819 377.435 66.7099 367.334 67.5269 355.406C76.5697 356.478 85.7176 354.615 93.6209 350.092C101.524 345.569 107.764 338.625 111.421 330.285C115.077 321.946 115.956 312.651 113.928 303.774C111.899 294.897 107.071 286.906 100.156 280.982C101.631 278.95 103.149 276.917 104.711 274.882C118.164 290.351 132.726 304.82 148.281 318.173C151.705 348.81 157.943 377.541 166.702 402.823C165.03 403.166 163.36 403.493 161.7 403.794ZM318.815 418.8C301.315 457.877 277.868 480.289 254.5 480.289C231.132 480.289 207.69 457.877 190.185 418.8C189.496 417.262 188.819 415.704 188.156 414.125C211.02 407.695 233.232 399.137 254.5 388.564C275.768 399.138 297.98 407.696 320.844 414.127C320.178 415.702 319.502 417.26 318.815 418.8ZM434.378 385.51C421.166 404.784 389.427 411.447 347.297 403.792C345.64 403.492 343.97 403.164 342.297 402.822C351.056 377.54 357.297 348.809 360.718 318.172C376.274 304.818 390.837 290.349 404.29 274.878C406.27 277.463 408.183 280.047 410.029 282.632C403.923 288.505 399.714 296.071 397.942 304.355C396.17 312.64 396.916 321.265 400.085 329.122C403.254 336.979 408.7 343.709 415.724 348.446C422.748 353.184 431.028 355.712 439.5 355.706C440.164 355.706 440.824 355.686 441.48 355.656C442.245 367.475 439.873 377.5 434.378 385.512V385.51ZM439.5 339.704C434.259 339.704 429.135 338.15 424.777 335.238C420.419 332.326 417.023 328.187 415.017 323.345C413.011 318.503 412.487 313.175 413.509 308.034C414.532 302.894 417.056 298.172 420.762 294.466C424.468 290.76 429.19 288.236 434.33 287.213C439.471 286.191 444.799 286.715 449.641 288.721C454.483 290.727 458.622 294.123 461.534 298.481C464.446 302.839 466 307.963 466 313.204C465.993 320.23 463.199 326.967 458.231 331.935C453.263 336.904 446.526 339.699 439.5 339.706V339.704Z" fill="url(#paint0_linear_1_12)"/>
<path d="M193.726 295L212.126 225H235.126L253.526 295H239.926L236.126 279.6H211.126L207.326 295H193.726ZM214.226 267.4H233.026L224.526 233.3H222.726L214.226 267.4ZM282.305 296.4C278.371 296.4 274.671 295.433 271.205 293.5C267.805 291.5 265.071 288.6 263.005 284.8C260.938 281 259.905 276.4 259.905 271V269.4C259.905 264 260.938 259.4 263.005 255.6C265.071 251.8 267.805 248.933 271.205 247C274.605 245 278.305 244 282.305 244C285.305 244 287.805 244.367 289.805 245.1C291.871 245.767 293.538 246.633 294.805 247.7C296.071 248.767 297.038 249.9 297.705 251.1H299.505V225H312.105V295H299.705V289H297.905C296.771 290.867 295.005 292.567 292.605 294.1C290.271 295.633 286.838 296.4 282.305 296.4ZM286.105 285.4C289.971 285.4 293.205 284.167 295.805 281.7C298.405 279.167 299.705 275.5 299.705 270.7V269.7C299.705 264.9 298.405 261.267 295.805 258.8C293.271 256.267 290.038 255 286.105 255C282.238 255 279.005 256.267 276.405 258.8C273.805 261.267 272.505 264.9 272.505 269.7V270.7C272.505 275.5 273.805 279.167 276.405 281.7C279.005 284.167 282.238 285.4 286.105 285.4Z" fill="#5C3292"/>
<defs>
<linearGradient id="paint0_linear_1_12" x1="256" y1="11.645" x2="256" y2="493.27" gradientUnits="userSpaceOnUse">
<stop stop-color="#5C3292"/>
<stop offset="1" stop-color="#205E98"/>
</linearGradient>
</defs>
</svg>
